<?xml version="1.0" encoding="utf-8"?>
<!-- Generator: Adobe Illustrator 22.0.1, SVG Export Plug-In . SVG Version: 6.00 Build 0)  -->
<svg version="1.1" id="Capa_1" xmlns="http://www.w3.org/2000/svg" xmlns:xlink="http://www.w3.org/1999/xlink" x="0px" y="0px"
	 viewBox="0 0 360 360" style="enable-background:new 0 0 360 360;" xml:space="preserve">
<style type="text/css">
	.st0{fill:#D8A4A5;}
	.st1{fill:none;stroke:#878787;stroke-width:2.1964;stroke-miterlimit:10;}
	.st2{fill:#878787;}
	
		.st3{opacity:0.53;fill:none;stroke:#878787;stroke-width:2.1964;stroke-linecap:round;stroke-linejoin:round;stroke-miterlimit:10;stroke-dasharray:6.5893,6.5893;enable-background:new    ;}
	.st4{font-family:'ArialMT';}
	.st5{font-size:16.4733px;}
	.st6{fill:none;stroke:#D8A4A5;stroke-width:1.0982;stroke-miterlimit:10;}
	.st7{fill:none;stroke:#878787;stroke-width:0.5491;stroke-miterlimit:10;}
	.st8{fill:#601514;}
	.st9{font-size:15.3751px;}
</style>
<g>
	<g>
		<g>
			<path class="st0" d="M253.3,161.8c0-0.1,0-0.3,0-0.4c0-0.3,0.1-0.6,0.2-0.9c0.5-1.9,1-3.8,1.5-5.6c0.4-1.5,0.8-3.1,1.2-4.6
				c0.2-0.6,0.2-1.2,0.4-1.8c0.2-0.8,0.6-1.5,0.4-2.3c-0.1-0.2,0.1-0.5-0.1-0.8c-0.1,0.4-0.2,0.8-0.3,1.2c-0.1-0.4-0.1-0.7-0.1-1
				c0-1.2-0.3-2.4-1-3.4c-0.5-0.7-0.9-1.4-1.5-2.1c-1.3-1.7-3-3-5-3.7c-1.2-0.4-2.5-0.6-3.7-0.9c-2.8-0.6-5.7-0.9-8.5-1.4
				c-0.2,0-0.4-0.1-0.5-0.2c-0.2-0.1-0.4-0.3-0.6-0.3v-0.1c0.4-0.1,0.7-0.2,1.1-0.3c0.8-0.3,1.6-0.6,2.5-0.6
				c1.6-0.1,3.1-0.1,4.7-0.2c1.8-0.1,3.7-0.3,5.5-0.6c1.2-0.2,2.5-0.4,3.6-0.7c0.4-0.1,0.6-0.3,0.6-0.7c0.1-0.5,0.4-0.9,0.9-1.1
				c0.4-0.1,0.7-0.2,1.1-0.3c0.3,0,0.7-0.1,1-0.1c0.3,0,0.6,0,0.9,0c0.4,0.1,0.8,0.1,1.2,0.2c0.9,0.3,1.7,0.8,2.3,1.5
				c0.6,0.8,1.2,1.6,1.8,2.4c1.1,1.5,1.5,3.2,1.6,5c0.1,2.6-0.5,5.1-1.3,7.6c-1,3-1.9,6-2.8,9c-0.6,2.4-1.2,4.8-1.6,7.2
				c-0.2,1.3-0.4,2.7-0.4,4.1c-0.1,1.7-0.1,3.3-0.1,5c0.1,2.6,0.2,5.2,0.3,7.8c0.1,2.7,0.7,5.4,1.2,8c0.2,1.1,0.7,2.1,1,3.1
				c1,2.8,2,5.7,3,8.5c0.1,0.3,0.2,0.5,0.4,0.8c0.7,1,1.4,2,2.2,3c0.1,0.1,0.2,0.2,0.2,0.4c0,0.2,0.2,0.3,0.3,0.4
				c0.2,0.1,0.3,0.3,0.3,0.5c0,0.2,0.2,0.3,0.3,0.4c0.4,0.4,0.5,0.8,0.7,1.3c0.1,0.1,0.1,0.3,0.2,0.4c0.7,0.8,1.1,1.7,1.7,2.6
				c0.5,0.8,0.9,1.7,1.3,2.6c0.8,2,1.6,3.9,2.4,5.9c0.3,0.8,0.4,1.6,0.5,2.5c0.2,1.7,0.5,3.5,0.7,5.2c0.2,1.5,0.4,3,0.3,4.5
				c-0.1,1.7,0.1,3.4,0.1,5c0,1.3,0.1,2.7,0.1,4c0,1.4,0,2.8,0.1,4.2c0.1,1.4,0.3,2.9,0.5,4.3c0,0.3,0,0.6,0,0.9
				c-0.1,0.8-0.2,1.6-0.2,2.3c-0.1,0.7-0.1,1.5-0.2,2.2c-0.2,1.8-0.6,3.6-1.1,5.3c-0.3,1.2-0.4,2.4-0.7,3.5
				c-0.3,1.1-0.5,2.3-0.7,3.5c0,0.2,0,0.3,0,0.5c0.1,1.1,0.2,2.2,0,3.2c0,0.3-0.1,0.7,0,1c0,0.2,0.1,0.4,0,0.6
				c0,0.1,0.1,0.2,0.1,0.2c0.2,0.1,0.2,0.3,0.1,0.5c-0.1,0.2-0.1,0.4-0.1,0.5c0.1,0.3,0.1,0.7,0.1,1c0,0.3,0.2,0.6,0.1,0.9
				c0,0.3-0.2,0.5-0.5,0.3c-0.2-0.1-0.2,0.1-0.2,0.1c0,0.4-0.1,0.7-0.1,1c0,1.4-0.1,2.8-0.1,4.2c0,0.6,0,1.1-0.1,1.7
				c0,0.1,0,0.2-0.1,0.4c-0.1-0.9-0.3-1.7-0.4-2.6c-0.1-0.9-0.3-1.9-0.4-2.8c0-0.3,0-0.6,0.1-0.9c0-0.5-0.2-0.9-0.2-1.3
				c-0.6-0.6-0.4-1.4-0.4-2.1c0-0.2,0-0.4-0.2-0.6c0,0-0.1-0.1-0.1-0.1c0-1.3-0.3-2.5-0.4-3.8c0-0.3-0.1-0.6-0.4-0.8
				c-0.2-0.1-0.2-0.4-0.1-0.6c0.2-0.4,0.2-0.7,0-1c-0.2-0.4-0.1-0.7-0.2-1.1c-0.1-0.4,0-0.8-0.4-1.1c-0.1-0.1-0.1-0.3-0.2-0.5
				c-0.2-1.1-0.4-2.1-0.6-3.2c0-0.3-0.2-0.5-0.5-0.4c-0.2,0-0.4,0-0.6-0.1c-0.3-0.1-0.6-0.3-1-0.4c-0.5-0.2-0.6-0.2-0.8,0.4
				c-0.2,0.6-0.4,1.1-0.7,1.6c-0.2,0.3-0.2,0.7-0.4,1.1c-0.2,0.6-0.4,1.2-0.7,1.8c-0.2,0.4,0,0.9,0,1.3c0.1,1.4,0.3,2.9,0.3,4.3
				c0,0.8-0.2,1.5-0.3,2.3c-0.2,1.2-0.3,2.3-0.4,3.5c0,0.8-0.1,1.6-0.2,2.4c-0.1,0.5-0.1,1.1-0.1,1.7c-0.1,1.7-0.2,3.5-0.2,5.2
				c0.1,4,0,8.1,0.1,12.1c0,0.4,0.1,0.6,0.5,0.9c1.1,0.8,2,1.9,2.6,3.2c0.1,0.3,0.3,0.4,0.6,0.5c2.1,0.6,4.1,1.1,6.2,1.7
				c0.3,0.1,0.5,0.2,0.4,0.6c0,0.2,0,0.5,0,0.8c0,0.3-0.1,0.4-0.4,0.3c-1.6-0.4-3.2-0.9-4.8-1.3c-1.1-0.3-2.2-0.6-3.2-0.9
				c-0.3-0.1-0.5,0-0.7,0.1c-0.2,0.2-0.5,0.4-0.8,0.5c-0.7,0.3-1.1,0.9-1.5,1.6c-0.3,0.6-0.6,1.2-1,1.8c-0.3,0.4-0.2,0.5,0.4,0.8
				c0.6,0.2,1.1,0.6,1.5,1c0.2,0.1,0.4,0.2,0.5,0.4c-0.5-0.1-0.9-0.1-1.4-0.1c-3.1-0.2-6.1-1-9.2-1.8c-1-0.3-0.7-0.3-1.3,0.5
				c-0.1,0.2-0.3,0.4-0.4,0.6c-0.7,1.4-2,2.2-3,3.2c-0.1,0.1-0.3,0.1-0.4-0.2c-0.2-0.4-0.5-0.8-0.8-1.2c-0.2-0.2-0.1-0.3,0-0.5
				c0.4-0.7,0.9-1.4,1.3-2c0.1-0.2,0.2-0.3-0.1-0.3c-1.8-0.3-3.6,0-5.4,0.2c-1.6,0.2-3.1,0.3-4.6,0.5c-0.3,0-0.4,0-0.3-0.3
				c0.3-1,0.3-1,1.3-1.2c3.3-0.8,6.7-1.6,10-2.4c0.3-0.1,0.4-0.2,0.5-0.5c0.3-0.8,0.7-1.6,1-2.4c0.1-0.1,0.1-0.3,0.1-0.4
				c0-1.3-0.1-2.6-0.1-3.9c-0.1-2.3-0.1-4.6-0.2-6.9c0-1.2-0.1-2.5-0.1-3.7c-0.1-1.3-0.2-2.7-0.2-4c-0.1-1.1-0.1-2.2-0.1-3.3
				c-0.1-1.1-0.1-2.2-0.2-3.2c-0.1-0.7-0.4-1.3-0.7-2c-0.2-0.4-0.2-0.8-0.4-1.2c0,0,0-0.1,0-0.1c0.2-0.3,0-0.6,0-0.8
				c0-0.8,0-1.5,0.2-2.3c0-0.1,0-0.2,0-0.3c-0.1-0.3-0.1-0.6,0-0.9c0.1-0.2,0.1-0.3-0.1-0.5c-0.1-0.1-0.1-0.2,0-0.3
				c0.1-0.2,0.1-0.4,0.1-0.5c-0.2-1.1-0.1-2.2-0.2-3.3c0-0.5-0.1-1-0.2-1.5c-0.1-0.6-0.1-1.2-0.1-1.9c0-0.5-0.1-0.9-0.3-1.4
				c-0.1-0.4-0.1-0.9-0.2-1.4c-0.3-1.2-0.7-2.4-1-3.6c-1-3.6-2.1-7.1-3.1-10.7c-0.3-1.1-0.5-2.3-0.5-3.5c0-0.5,0-1.1,0-1.6
				c0-0.1,0-0.2-0.1-0.3c-0.4-1.1-0.9-2.1-1.5-3.1c-0.7-1.3-1.4-2.7-1.9-4.1c-0.4-0.9-0.5-1.9-0.7-2.9c-0.5-2.1-0.9-4.3-1.2-6.4
				c-0.1-1-0.1-1.9-0.1-2.9c0.2-3.7,1.2-7.3,2.1-10.9c0.3-1.1,0.9-2,1.4-3c1-1.9,2.2-3.6,3.3-5.4c1.5-2.5,2.6-5.2,3.5-7.9
				c0.8-2.5,1.5-5.1,2-7.7c0.5-2.2,0.7-4.5,1-6.8c0.2-1.8,0.5-3.5,0.7-5.3c0.1-1.1,0.3-2.2,0.4-3.3c0.1-1,0.2-2,0.3-3
				c0-0.1,0-0.2,0-0.4L253.3,161.8z M251.2,249c-0.1,0.5-0.3,0.9-0.2,1.4c0.1,1.3,0,2.5-0.2,3.8c-0.1,0.3-0.1,0.6-0.1,1
				c0.1,2.1,0.6,4.2,0.7,6.3c0,0.4,0,0.8,0.2,1.2c0.1,0.2,0.2,0.3,0.2,0.5c0,0.7,0.2,1.3,0.3,2c0.4,1.6,0.8,3.2,1.2,4.7
				c0.1,0.2,0,0.4,0,0.6c-0.5,1-0.6,2.2-0.6,3.3c-0.1,2.1,0,4.3,0,6.4c0,1.5,0.1,3,0.1,4.5c0,1.5,0,3,0,4.5c0.1,2.2,0.2,4.4,0.3,6.5
				c0,0.9,0.1,1.8,0.1,2.7c0,0.2,0.1,0.2,0.2,0.3c0.4,0,0.7,0.1,1,0c1.1-0.3,2.1-0.6,3.2-0.7c0.9-0.1,1.6-0.4,2.3-0.9
				c0.2-0.2,0.5-0.4,0.8-0.5c0.1-0.1,0.2-0.2,0.3-0.3c0.3-0.5,0.6-1,0.9-1.5c0.1-0.1,0.1-0.3,0.1-0.5c0-1,0-2,0-3.1
				c0-1.5,0.1-2.9,0.1-4.4c0-0.6,0-1.3,0-2c0-1.5,0.1-3,0.1-4.5c0-1.2-0.1-2.5-0.1-3.7c0-0.4-0.1-0.9,0-1.3c0-0.5-0.2-1.1,0.1-1.6
				c0-0.1,0-0.1,0-0.2c0-0.8-0.1-1.5-0.2-2.2c-0.2-0.8-0.4-1.6-0.8-2.4c0-0.1,0-0.2-0.1-0.2c-0.1,0-0.1,0.1-0.2,0.2
				c-0.6,1.6-1.3,3.2-1.9,4.8c-0.2,0.5-0.4,1.1-0.7,1.5c-0.1,0.2-0.3,0.4-0.6,0.4c-0.3,0.1-0.4,0-0.5-0.3c0-0.3,0-0.7,0.1-1
				c0.3-0.9,0.6-1.8,0.9-2.6c0.6-1.9,0.9-3.9,0.7-5.9c0-0.2,0-0.5-0.2-0.6c-0.2,0-0.3,0.3-0.3,0.5c-0.2,0.6-0.4,1.3-0.7,2
				c-0.5,1.4-1.2,2.8-1.6,4.2c-0.5,1.4-1,2.8-1.5,4.2c-0.1,0.3-0.3,0.5-0.6,0.8c-0.1-0.4,0-0.7,0-1c0.1-1.4,0-2.8,0.4-4.2
				c0.1-0.5,0.1-1,0.3-1.4c0.4-1.3,0.4-2.7,0.7-4.1c0.1-0.5-0.2-1,0.1-1.5c0-1.2,0-2.5-0.3-3.7c0-0.2,0.1-0.4,0-0.6
				c-0.2-0.5-0.3-0.9-0.1-1.4c0-0.1,0-0.1,0-0.2c-0.2-0.1-0.2-0.4-0.2-0.6c0-0.6-0.3-1.1-0.5-1.6c-0.1-0.2-0.3-0.4-0.2-0.7
				c0.1-0.3-0.2-0.2-0.3-0.3c-0.1,0-0.1,0.1-0.1,0.2c-0.1,0.4-0.1,0.9-0.2,1.3c-0.1,0.6-0.4,1.1-0.7,1.7c-0.1-0.1-0.1-0.2-0.1-0.3
				c0-0.5-0.1-1-0.1-1.5c-0.2-2-0.4-4.1-0.6-6.1C251.7,250.3,251.5,249.7,251.2,249z M261.2,299.3c0-0.1-0.1-0.2-0.1-0.4
				c-0.2-0.5-0.1-0.5-0.7-0.3c-1,0.4-2,0.9-3.1,1c-1.1,0.1-2,0.6-2.9,1.2c-0.1,0.1-0.2,0.1-0.2,0.3c0.1,0.3,0.2,0.6,0.4,0.8
				c1.1,0.9,2.4,1.7,3.7,2.4c0.3,0.1,1-0.1,1.1-0.4c0.7-1.5,1.3-2.9,1.8-4.4C261.2,299.4,261.2,299.4,261.2,299.3z"/>
		</g>
		<polyline class="st1" points="328,309.2 67,309.2 67,39.2 		"/>
		<path class="st2" d="M178.7,192.8c-0.4-0.7-0.8-1.3-1.1-2c-0.5-0.9-0.8-1.8-1-2.8c-0.3-1.2-0.6-2.5-0.9-3.7
			c-0.2-1-0.7-1.9-1.4-2.7c-1-1.1-1.9-2.4-2.7-3.6c-0.2-0.2-0.3-0.5-0.3-0.8c-0.1-0.6-0.1-1.2-0.1-1.8c-0.2-1.6-0.4-3.2-0.5-4.8
			c-0.2-2.7-0.3-5.4-0.5-8c-0.1-2.2-0.3-4.3-0.4-6.5c-0.3-3.4-1-6.7-2.3-9.9c-0.1-0.2-0.1-0.5-0.1-0.8c0.1-0.6,0.2-1.3,0.2-1.9
			c0.1-2,0-3.9-0.2-5.9c-0.6-4.3-1.8-8.5-3.1-12.6c-0.1-0.4-0.2-0.8-0.2-1.1c0-0.6,0.2-1.2,0.2-1.8c0.1-0.7,0-1.3,0.1-2
			c0.2-1.5,0.1-3-0.1-4.5c-0.4-2.4-1.5-5.1-2.9-7.4c-1.4-2.3-3.1-3.6-5.1-4.9c-0.9-0.6-1.9-1-2.9-1.3c-1.1-0.3-2.2-0.3-3.2-0.8
			c-0.4-0.2-0.9-0.3-1.4-0.6c-1.8-1-3.6-2-5.5-2.9c-1.3-0.7-2.7-1.3-4.1-1.9c-0.5-0.2-0.5-0.2-0.6-0.7c-0.3-2.8,0.3-5.8,0.3-5.9
			c0,0,0,0,0-0.1c0,0,0.1-0.1,0.1-0.1c0.4-0.6,0.7-1.3,0.8-2c0.1-0.5,0.1-1,0.2-1.5c0.6,0.1,1.1,0,1.4-0.4c0.2-0.3,0.3-0.7,0.5-1
			c0.2-0.3,0.5-0.6,0.8-0.9c0.5-0.6,0.6-1.5,0.7-2.4c0-0.8,0.1-2.6-0.9-2.8c-0.2,0-0.5,0.1-0.8,0.3c0,0,0,0,0,0
			c0.1-0.8,0.1-1.5,0.3-2.3c0.6-2.7,0.2-5.3-0.9-7.6c-1.5-2.9-4.3-5-7.9-5.7c-8.4-1.5-15.4,4.4-14.4,13.1c0.1,0.8,0.4,1.5,0.6,2.2
			c0,0.1,0.1,0.2,0.1,0.3c-0.3-0.2-0.6-0.4-0.8-0.4c-1,0.2-0.9,2-0.9,2.8c0,0.8,0.1,1.7,0.7,2.4c0.2,0.3,0.6,0.6,0.8,0.9
			c0.2,0.3,0.2,0.7,0.5,1c0.3,0.5,1.1,0.5,1.8,0.3c0.1,0.3,0.1,0.5,0.1,0.8c0.1,0.9,0.3,1.8,0.7,2.5c0.2,0.3,0.4,0.6,0.6,1
			c0.1,1.4,0.4,4.3,0.5,4.9c0.1,0.8-0.2,1-1,1.4c-0.1,0-0.1,0.1-0.2,0.1c-1.2,0.6-2.5,1.2-3.7,1.8c-1.7,0.9-3.3,1.9-4.9,2.8
			c-0.8,0.5-1.7,0.9-2.6,1.1c-0.4,0.1-0.8,0.1-1.2,0.2c-0.8,0.3-1.7,0.4-2.5,0.8c-2.5,1.5-4.7,2.9-6.4,5.9c-2,3.5-3.4,7.6-2.8,11.7
			c0,0.1,0,0.2,0,0.3c-0.1,0.7,0.1,1.4,0.2,2.2c0.1,0.7,0.2,1.4,0,2.2c-1.2,3.7-2.2,7.5-2.9,11.4c-0.5,3-0.7,6.1-0.3,9.2
			c0.1,0.4,0,0.7-0.1,1c-0.7,1.6-1.2,3.4-1.6,5.1c-0.7,3.4-0.9,6.8-1.1,10.2c-0.1,1.6-0.1,3.1-0.2,4.7c-0.1,1.9-0.3,3.9-0.5,5.8
			c-0.1,1.3-0.3,2.5-0.3,3.8c0,1-0.2,1.9-0.9,2.6c-0.9,1.1-1.7,2.1-2.6,3.2c-0.4,0.4-0.7,0.9-0.9,1.4c-0.4,1.5-0.8,3-1.1,4.5
			c-0.2,0.8-0.4,1.7-0.8,2.4c-0.5,0.8-0.9,1.7-1.4,2.5c-0.3,0.5-0.2,0.9,0.4,1c0.9,0.2,1.7,0.2,2.4-0.4c0.4-0.4,0.8-0.8,1.3-1.3
			c0.1-0.1,0.2-0.3,0.4-0.5c0,0,0.1,0,0.1,0.1c0,0.2,0,0.4-0.1,0.6c-0.2,1.5-0.4,3.1-0.5,4.6c-0.1,1.3-0.2,2.6-0.3,4
			c0,0.5,0,1.1,0,1.6c0,0.2,0.2,0.4,0.4,0.5c0.2,0.1,0.3-0.1,0.5-0.2c0.8-0.8,1.2-1.8,1.5-2.8c0.5-1.9,0.9-3.9,1.4-5.8
			c0-0.1,0.1-0.2,0.2-0.4c0.1,0.1,0.1,0.2,0.1,0.3c0,0.5,0,1-0.1,1.5c-0.1,1.2-0.1,2.4-0.2,3.6c-0.1,1.5-0.1,2.9,0.1,4.4
			c0.1,0.1,0.3,0.1,0.4,0.1c0.3,0.2,0.6,0.1,0.8-0.1c0.1-0.2,0.2-0.4,0.3-0.6c0.5-1.6,0.7-3.2,1-4.9c0.2-0.9,0.3-1.9,0.4-2.8
			c0.1,0.1,0.1,0.3,0.1,0.4c0,1.6,0,3.3,0,4.9c0,0.6,0.1,1.1,0.2,1.7c0.1,0.4,0.3,0.6,0.6,0.6c0.2,0,0.6-0.2,0.7-0.5
			c0.1-0.1,0.1-0.3,0.1-0.5c0.1-0.8,0.2-1.6,0.4-2.5c0.2,0.6,0.4,1,0.6,1.5c0.3,0.6,0.3,0.6,0.9,0.5c0.1,0,0.1,0,0.3,0
			c0.1-0.3,0.2-0.6,0.2-0.9c0-0.8,0-1.6,0-2.4c0-1.9-0.2-3.9,0.2-5.8c0.3-1.1,0.2-2.3,0.3-3.4c0-0.4,0-0.8,0-1.1
			c0.2-1.5,0.2-3,0.2-4.5c-0.1-1.4-0.2-2.9-0.6-4.2c-0.2-0.5-0.1-0.9,0-1.4c0.6-1.7,1.3-3.5,1.9-5.2c1.3-4.2,2.6-8.4,3.8-12.6
			c0.8-2.6,1.3-5.3,1.2-8.1c0-0.7,0.1-1.4,0.1-2.1c0-0.9,0-1.7,0-2.6c0-0.5,0.1-1,0.3-1.4c0.8-1.4,1.3-2.8,1.9-4.3
			c0.6-1.6,1-3.1,1.4-4.7c0.1-0.2,0.1-0.4,0.3-0.6c0.3,0.6,0.5,1.2,0.8,1.8c0.1,0.1,0,0.3,0.1,0.4c0.2,2.2,0.5,4.5,0.7,6.7
			c0.1,1.2,0.3,2.5,0.4,3.7c0.1,1.4,0,2.9,0.1,4.3c0,1.8,0.1,3.5,0.2,5.3c0,0.7,0.2,1.4,0.3,2c0.1,0.5,0.2,1,0,1.5
			c-0.2,0.5-0.3,1-0.4,1.6c-0.5,2.2-0.8,4.5-0.3,6.8c0.1,0.2,0,0.5,0,0.7c-0.3,1.4-0.6,2.7-0.8,4.1c-0.8,4.4-1.7,8.9-2.4,13.3
			c-0.4,2.2-0.6,4.4-0.8,6.6c-0.3,3-0.4,6.1-0.4,9.1c0,1.9,0.1,3.7,0.2,5.6c0.1,1,0.3,2,0.4,3c0.3,2.9,0.8,5.8,1.1,8.7
			c0.2,1.9,0.2,3.9-0.1,5.8c-0.5,2.6-0.6,5.3-0.5,8c0,0.6-0.1,1.1-0.2,1.6c-0.9,2.4-1.3,4.9-1.6,7.3c-0.9,9.4-0.7,18.8,0,28.3
			c0,0,0.3,7.4,0.3,9c0,1.7-0.5,4.1-1.3,5.7c-2.2,4.5-5.9,8.6-9.1,12.6c-1.7,2.1-1.9,1.7-2.7,2.4c-0.8,0.6-0.9,0.9-1.3,1.6
			c-0.4,0.6-0.2,1.1-0.2,1.1c-0.5,1.3,0.4,1.5,0.4,1.5c0.6,1.1,1.6,0.7,1.6,0.7c1.4,1.4,2.2,0.3,2.2,0.3c1.6,1.8,3.2,1.4,5.1-0.2
			s1.7-0.9,2.7-1.3c4.3-1.7,4.6-6,8.3-8.1c4.2-2.3,5.2-4.9,4.7-6.5s-0.8-3.9-0.8-3.9c0.4-0.3,0.6-1.2,0.3-2.2
			c-0.8-3-0.5-3.4,0.1-9.5c0.9-5.6,1.7-12,4.3-16.9c0.9-1.7,1.6-3.8,1.8-5.8c0.2-1.5,0.2-3.1,0.1-4.6c-0.1-1.9-0.3-3.8-0.5-5.6
			c-0.2-1.4-0.4-2.8-0.6-4.2c-0.1-0.3,0-0.6,0.2-0.9c0.5-0.8,0.9-1.6,1.1-2.5c0.5-1.7,0.8-3.5,0.8-5.3c0-1,0-1.9,0.1-2.9
			c0.1-0.7,0.1-1.5,0.4-2.2c1.6-3,2.8-6.1,3.8-9.4c0.9-3.1,1.6-6.3,2.4-9.5c0.6-2.7,1.2-5.4,1.8-8c0,0.3,0.1,0.5,0.1,0.8
			c0.2,0.8,0.4,1.6,0.6,2.4c0.7,2.7,1.4,5.4,2,8.1c1.3,5.4,3.1,10.8,5.8,15.7c0,0,0,0,0,0c0.1,0.2,0.2,0.3,0.2,0.5
			c0,0.1,0.1,0.2,0.1,0.3c0.2,1.8,0.4,3,0.4,3.5h0c0,0.3,0,0.6,0,0.8c0,1.3,0.2,3.1,0.8,5.3c0.2,0.9,0.6,1.7,1.1,2.5
			c0.1,0.2,0.7,1.1-0.1,5.6c-0.3,1.9-0.4,3.8-0.4,5.7c0,1.5,0.1,3.1,0.3,4.6c0.3,2,1,4,2,5.8c2.7,4.7,3.3,11,4.3,16.5
			c0.8,6.2,1,6.2,0.3,9.3c-0.2,0.9,0.1,2.1,0.6,2.4c0,0-0.2,1.5-0.4,3.2c-0.4,3,0.1,4.6,4.4,7.2c3.8,2.2,3.9,6.6,8.4,8.1
			c1,0.4,1-0.2,2.8,1.5c1.9,1.8,3.4,1.8,4.9-0.1c0,0,0.9,1,2.2-0.2c0,0,1.2,0.3,1.6-0.8c0,0,1.1-0.4,0.3-1.5c0,0,0.8-0.4-0.9-2.4
			c-0.5-0.5-1.3-0.3-3-2.6c-2.5-3.2-4.9-6.5-7.3-9.9c-1.1-1.5-2.2-2.8-2.7-4.6c-0.4-1.8-0.7-2-0.7-3.6c-0.1-4.3,0.1-8.7,0.2-13
			c-0.1-8.3,0.1-16.4-0.8-24.6c-0.2-1.7-1.4-6.4-1.7-6.9c-0.3-0.9-0.5-1.8-0.5-2.1c0.1-2.7-0.1-5.4-0.5-8c-0.3-1.9-0.4-4-0.3-5.9
			c0.1-0.9,0.1-1.9,0.2-2.8c0.1-1.1,0.3-2.2,0.4-3.2c0.1-1.2,0.3-2.5,0.4-3.7c0.1-1.2,0.3-2.3,0.3-3.5c0.1-1.9,0-3.7,0-5.6
			c0-3.1-0.2-6.2-0.7-9.2c-0.4-2.6-0.7-5.1-1.2-7.7c-0.5-2.6-1.1-5.3-1.6-7.9c-0.5-2.4-1.1-4.9-1.6-7.3c0-0.2,0-0.4,0-0.6
			c0.3-1.5,0.3-3.1,0-4.6c-0.2-1.2-0.5-2.3-0.8-3.5c-0.1-0.5-0.1-0.9-0.1-1.4c0.1-0.6,0.2-1.3,0.3-1.9c0-1.3,0-2.7,0-4
			c0-1.1-0.1-2.2-0.1-3.3c0.1-1.7,0.2-3.4,0.3-5.1c0.2-2.6,0.4-5.1,0.7-7.7c0-0.4,0.6-1.5,0.8-1.8c0.1,0.2,0.1,0.3,0.1,0.5
			c0.7,3.1,1.8,6,3.3,8.8c0.2,0.3,0.2,0.6,0.2,0.9c0,0.5-0.1,1,0,1.4c0,1.2,0.2,2.5,0.1,3.7c-0.1,2.6,0.4,5,1.1,7.5
			c0.5,1.8,1.1,3.6,1.6,5.4c1,3.2,1.8,6.5,3,9.6c0.4,1.2,0.9,2.4,1.3,3.5c0.1,0.3,0.1,0.6,0,0.9c-0.1,0.3-0.2,0.7-0.3,1
			c-0.3,1.8-0.5,3.6-0.4,5.5c0.1,0.9,0.1,1.8,0.2,2.8c0,1.8,0,3.6,0.6,5.3c0,0.1,0,0.1,0,0.2c0,1.4,0,2.8,0,4.2
			c0,0.9-0.1,1.7-0.1,2.6c0,0.3,0.1,0.6,0.2,0.9c0.2,0,0.3,0,0.4,0.1c0.5,0.1,0.5,0.1,0.7-0.4c0.1-0.3,0.3-0.6,0.4-0.9
			c0.1-0.2,0.1-0.4,0.2-0.6c0.2,0.8,0.3,1.6,0.4,2.4c0,0.1,0,0.3,0.1,0.4c0.1,0.3,0.5,0.5,0.7,0.5c0.3,0,0.6-0.3,0.7-0.6
			c0.1-0.5,0.2-1,0.2-1.6c0-1.7,0-3.3,0-5c0-0.1,0-0.3,0.1-0.5c0.2,1.5,0.4,2.9,0.7,4.4c0.2,1.1,0.5,2.3,0.8,3.4
			c0.2,0.7,0.6,0.9,1.2,0.6c0.1,0,0.2-0.1,0.3-0.1c0.4-3.3-0.2-6.5-0.1-9.9c0.3,0.2,0.3,0.4,0.3,0.5c0.2,0.8,0.4,1.6,0.6,2.4
			c0.2,0.9,0.5,1.9,0.8,2.8c0.3,1.2,0.7,2.3,1.6,3.2c0.1,0.1,0.2,0.3,0.5,0.2c0.2-0.1,0.4-0.2,0.4-0.5c0-0.1,0-0.2,0-0.3
			c-0.1-1.5-0.1-3-0.3-4.5c-0.2-2-0.4-4.1-0.6-6.2c0.2,0.2,0.3,0.4,0.4,0.6c0.3,0.3,0.5,0.6,0.8,0.9c0.8,0.8,1.8,1.1,2.9,0.9
			C178.8,193.7,179,193.3,178.7,192.8z"/>
		<line class="st3" x1="278.5" y1="127.4" x2="56.8" y2="127.4"/>
		<line class="st3" x1="278.5" y1="62.8" x2="56.8" y2="62.8"/>
		<text transform="matrix(1 0 0 1 239.3516 332.1133)" class="st0 st4 st5">Grulla</text>
		<text transform="matrix(1 0 0 1 239.3516 332.1133)" class="st6 st4 st5">Grulla</text>
		<text transform="matrix(1 0 0 1 217.0716 351.8833)" class="st0 st4 st5"> CuelliBlanco</text>
		<text transform="matrix(1 0 0 1 217.0716 351.8833)" class="st6 st4 st5"> CuelliBlanco</text>
		<g>
			<text transform="matrix(1 0 0 1 74.6992 332.1133)" class="st2 st4 st5">Hombre promedio</text>
			<text transform="matrix(1 0 0 1 74.6992 332.1133)" class="st7 st4 st5">Hombre promedio</text>
		</g>
		<text transform="matrix(1 0 0 1 14.4688 130.5137)" class="st2 st4 st5">1.30 m</text>
		<g>
			<text transform="matrix(1 0 0 1 32.5039 311.7715)" class="st2 st4 st5">0</text>
		</g>
		<text transform="matrix(1 0 0 1 14.4688 65.5899)" class="st2 st4 st5">1.70 m</text>
	</g>
	<g>
		<path class="st8" d="M328,309.8V9.5V309.8z"/>
		<path class="st8" d="M328,9.5h-31.6H328z"/>
	</g>
	<text transform="matrix(0 1 -1 0 335.0645 65.585)" class="st8 st4 st9">Comparación con humanos.  </text>
</g>
</svg>
