<?xml version="1.0" encoding="utf-8"?>
<!-- Generator: Adobe Illustrator 22.0.1, SVG Export Plug-In . SVG Version: 6.00 Build 0)  -->
<svg version="1.1" id="Capa_1" xmlns="http://www.w3.org/2000/svg" xmlns:xlink="http://www.w3.org/1999/xlink" x="0px" y="0px"
	 viewBox="0 0 360 360" style="enable-background:new 0 0 360 360;" xml:space="preserve">
<style type="text/css">
	.st0{opacity:0.5;}
	.st1{fill:#FFFFFF;stroke:#8B1314;stroke-width:1.1648;stroke-miterlimit:10;}
	.st2{fill:#FFFFFF;stroke:#004F6F;stroke-width:1.1348;stroke-miterlimit:10;}
	.st3{fill:#1E1E1C;}
	.st4{font-family:'ArialMT';}
	.st5{font-size:12.1568px;}
	.st6{fill:#6F6C6B;}
	.st7{opacity:0.5;fill:#8B1314;enable-background:new    ;}
	.st8{opacity:0.5;fill:#004F6F;enable-background:new    ;}
	.st9{fill:none;stroke:#6F6C6B;stroke-width:1.3395;stroke-miterlimit:10;}
	.st10{opacity:0.5;fill:none;stroke:#8B1314;stroke-width:1.3395;stroke-miterlimit:10;enable-background:new    ;}
	.st11{opacity:0.5;fill:none;stroke:#004F6F;stroke-width:1.3395;stroke-miterlimit:10;enable-background:new    ;}
</style>
<g>
	<g>
		<g>
			
				<image style="overflow:visible;enable-background:new    ;" width="1516" height="893" xlink:href="51EF4DD23981F31B.png"  transform="matrix(-0.2093 -0.1343 -0.1343 0.2093 371 164.1328)">
			</image>
			<g class="st0">
				<g>
					<path class="st1" d="M13.2,67.3c0.3,1.4,1.7,2.4,2.4,3.7c1.5,3.1,4.7,5,7.7,7.1c1.9,1.3,3.5,3,5.3,4.5
						c6,4.9,13.4,8.3,21.5,10.8c4.1,1.3,8.6,1.7,13.1,2.1c5.8,0.5,11.6,1.2,17.4,1.5c3.8,0.2,7.6,0.5,11.5,0.6
						c4.1,0.1,8.2,0.3,12.3,0.5c2.1,0.1,4.2,0,6.3,0.1c4.7,0.1,9.4,0,14.2,0c4.8,0,9.6-0.2,14.4-0.4c5.8-0.2,11.6-1.1,17.4-1.8
						c5.5-0.7,11.1-1.3,16.6-1c3.1,0.2,5.9,1.2,8.7,1.9c4.1,1,8.4,1.7,12.7,2.4c5.6,1,11.3,1.9,17,2.8c4.7,0.7,9.4,1.4,14,2.1
						c4.4,0.7,8.9,1.4,13.3,2.2c3.5,0.7,7.1,1.1,10.6,1.7c5.5,0.9,11.1,1.7,16.6,2.8c4.5,0.9,9.1,1.4,13.6,2.3
						c4.1,0.8,8.3,1.5,12.3,2.3c3.7,0.8,7.5,1.3,11.1,2.4c5.5,1.7,10.5,3.9,14.1,7.7c0.5,0.5,0.8,1.1,0.5,1.8
						c-0.3,0.6-1.2,0.7-2,0.8c-0.9,0.1-1.8,0-2.6-0.1c-3.6-0.6-7.3-1.2-10.9-1.8c-4.3-0.7-8.5-1.4-12.8-2.1
						c-2.6-0.4-5.2-0.8-7.8-1.2c-5.6-0.7-11.1-1.5-16.7-2.2c-5.1-0.6-10.1-1.2-15.2-1.9c-2.7-0.4-5.5-0.6-8.2-1.1
						c-1.1-0.2-2.4-0.1-4.1-0.2c4.2,1.3,8.3,1.6,12.2,2.3c6.8,1.2,13.7,2.4,20.5,3.6c4.5,0.8,8.9,1.6,13.4,2.4
						c4.3,0.8,8.6,1.5,12.9,2.3c5.6,1,11.3,2,16.7,3.6c4.2,1.3,8.6,2.4,12.8,3.6c2.9,0.9,5.6,1.9,8,3.4c1.5,1,1.3,2.7-0.9,3.2
						c-3.2,0.8-6.4,1.2-9.8,1c-3.4-0.2-6.7-0.4-10-0.9c-4.6-0.7-9.1-1.4-13.6-2.3c-4.9-1.1-9.9-1.9-14.7-3.1
						c-4.4-1.1-8.8-2.1-13.3-3c-3.1-0.6-6.2-1.2-9.4-1.7c-3.4-0.6-6.6-1.3-10-1.9c-3.5-0.6-7-1.3-10.5-1.9c-0.4-0.1-0.9-0.2-1.4,0.1
						c3.6,1.1,7.3,1.8,10.9,2.8c3.6,0.9,7.3,1.8,11,2.6c6.3,1.4,12.5,3,18.8,4.6c5.2,1.3,10.4,2.5,15.5,3.8c3,0.8,6,1.6,9,2.4
						c4.5,1.2,9.1,2.4,13.5,3.7c6.2,1.8,12.5,3.5,18.3,6c0.5,0.2,1.1,0.5,1.6,0.8c0.7,0.5,1.2,1,0.9,1.8c-0.3,0.7-1.1,0.9-1.9,1.1
						c-1.4,0.4-2.8,0.1-4.2,0.1c-5.5,0.3-10.9-0.4-16.2-1c-2.8-0.3-5.6-0.7-8.3-1.1c-3.3-0.5-6.6-1-9.6-1.9
						c-4.1-1.2-8.3-2.1-12.4-3.3c-5.2-1.5-10.4-2.9-15.7-4.1c-4.5-1.1-8.9-2.5-13.5-3.4c-3.5-0.7-6.9-1.9-10.3-2.8
						c-3.1-0.8-6.1-1.6-9.2-2.4c-4.1-1.1-8.2-2.1-12.3-3.3c-4.2-1.2-8.5-2-12.6-3.4c-0.5-0.2-1.3-0.3-1.6,0.2
						c-0.4,0.7,0.5,1,1.1,1.2c2,0.8,4,1.4,6,2.1c2.9,1,5.9,1.9,8.7,3c4.1,1.7,8.6,2.9,12.7,4.5c4.1,1.7,8.5,3,12.7,4.5
						c5.4,2,11,3.8,16.4,5.8c8.7,3.1,17.3,6.3,26,9.6c2.3,0.9,4.3,2.1,6.6,3c3.5,1.5,6.7,3.3,10,4.9c2.6,1.3,5.1,2.8,7.4,4.4
						c0.6,0.4,1.3,1.1,0.8,1.9c-0.5,0.8-1.7,0.8-2.5,0.7c-2.7-0.2-5.3-0.4-7.9-0.7c-5.3-0.7-10.5-1.9-15.6-3.2
						c-5.2-1.3-10.2-2.9-15-4.7c-5.3-2-10.6-4-15.8-6.1c-5.5-2.2-10.9-4.5-16.4-6.7c-5.7-2.2-11.1-4.7-16.9-6.8
						c-3.2-1.2-6.3-2.6-9.4-3.9c-4-1.8-8.2-3.4-12.3-5.1c-1.4-0.6-3-1-4.3-1.8c-0.4-0.3-1.1-0.6-1.7-0.2c-0.6,0.4-0.2,0.9-0.2,1.3
						c0,1,0.6,1.6,1.5,2.3c5.1,3.6,10.1,7.3,15.1,11c3.5,2.6,7.1,5.1,10.6,7.8c3.8,2.9,7.9,5.5,11.5,8.5c1.7,1.4,3.7,2.7,5.6,4
						c2.8,2,5.5,4,8.2,6.1c3,2.2,6,4.4,8.7,6.8c0.8,0.7,1.3,1.5,1,2.5c-0.2,0.7-1.2,1.2-1.8,1.2c-1.6,0-3.2,0.1-4.8-0.3
						c-5.3-1.2-9.3-4-13.5-6.5c-4.5-2.6-8.8-5.5-13.1-8.3c-5.4-3.5-10.7-7.2-15.8-11c-6.1-4.6-12.4-8.9-18.9-13.1
						c-3.9-2.5-7.9-4.8-11.8-7.2c-0.1-0.1-0.3-0.1-1.1-0.2c1.4,1.4,2.4,2.4,3.5,3.5c2.6,2.6,5.3,5,7.7,7.7c1.8,2,3.7,3.9,5.4,6
						c2,2.4,3.7,4.9,5.5,7.3c2.8,3.9,5.6,7.8,8.2,11.9c1.3,2,2.6,4.1,3.8,6.1c1.1,2,2.5,3.8,3.1,6c0.2,0.6,0.4,1-0.2,1.5
						c-0.6,0.5-1.3,0.2-1.8,0c-2.2-1.3-4.3-2.6-6.4-3.9c-0.4-0.3-0.8-0.5-1.2-0.8c-0.9-0.8-1.9-0.7-2.9-0.1c-3,1.7-6.2,2.1-9.6,1.4
						c-1.1-0.2-1.8-0.1-1.8,1c0,0.7-0.4,1.5-0.5,2.2c-0.6,2.6-3.7,3.9-6.5,2.7c-2-0.8-3.4-2.2-5.3-3.1c-0.8-0.4-1.6-0.8-2.5-1.2
						c-1.1-0.5-1.4-0.1-1.4,0.8c0,1.2,0.6,2.2,0.9,3.3c0.7,3.1-1.8,4.9-5.8,4.4c-4.6-0.5-8.6-2.1-12.6-3.7c-0.9-0.4-1.1-0.3-1.5,0.5
						c-2.2,4.4-7.4,5.1-12.7,4.9c-2.5-0.1-4.5-1-6.6-1.8c-0.9-0.3-1.2-0.2-1.5,0.5c-1.3,2.4-4,3.5-6.9,4.1c-2.4,0.5-4.3-0.2-6.2-1.1
						c-2.6-1.3-2.7-1.4-3.8,1.1c-0.4,0.9-1.2,1.5-2,2c-3.2,1.7-6.6,1.9-10.1,1.4c-1.4-0.2-2.8-0.5-3.8-1.3c-0.3-0.3-0.8-0.3-1.3-0.2
						c-1.8,0.2-3.5,0.1-5.2,0.1c-4.6,0.1-8.8-0.9-12.7-2.4c-1-0.4-1.7-0.3-2.7,0.2c-3.2,1.3-6.4,1.8-9.8,0.6
						c-1.5-0.5-2.8-1.2-3.8-2.1c-0.8-0.7-1.5-0.6-2.5-0.3c-2.1,0.7-4.2,1-6.4,1.2c-2.9,0.2-5.3-0.5-7.2-2.2c-1-0.9-2.5-0.8-3.8-1
						c-2.6-0.3-5-0.7-6.9-2c-0.7-0.5-1.3-0.9-1.5-1.6c-0.9-2.3-3.2-3.2-5.7-4c-3.4-1.1-6.9-1.8-9.9-3.5c-1.4-0.8-2.7-1.8-3.9-2.6
						c-0.7,3-4.2,7.8-5.6,8.5"/>
				</g>
				<path class="st1" d="M13.2,67.3c0,0-23.5,105.2,6.4,127.7"/>
			</g>
		</g>
		<g class="st0">
			<g>
				<path class="st2" d="M4.3,143.3c1.6-2,9.6-0.2,11.8,0.1c7.2,1,14.3,1.8,21.6,1.7c5.1-0.1,10.1-0.8,15.2-0.7
					c3.6,0,7.1,0.6,10.6,1.1c10.3,1.2,20.5,2.6,30.9,3.3c2.6,0.2,5.1,0.2,7.7,0.2c1.9,0,3.7,0.4,5.2,1.5c2.5,1.8,5.3,3,8.2,3.9
					c2.5,0.8,4,2.6,5.8,4.3c1.8,1.7,3.5,3.4,5.7,4.5c0.4,0.2,0.9,0.5,1.3,0.1c0.5-0.5,0.4-1,0.1-1.6c-0.3-0.6-0.8-1.1-1.4-1.5
					c-1.9-1.2-3-3.1-4.3-4.9c-0.3-0.3-0.4-0.7,0-1.1c0.3-0.4,0.7-0.2,1,0c2.8,1.8,5.9,2.8,8.8,4.4c1,0.5,2,1,3.1,1.4
					c0.7,0.3,1.4,0.4,1.8-0.4c0.4-0.8,0.1-1.5-0.6-2c-1.9-1.1-3.9-2.2-5.8-3.4c-1.4-0.8-2.6-1.8-4.1-2.5c-0.3-0.1-0.6-0.3-0.6-0.8
					c1,0,1.9,0.6,2.8,0.9c3.5,1.2,7,2.5,10.4,3.7c0.8,0.3,1.9,0.6,2.3-0.6c0.4-1.2-0.4-1.9-1.4-2.2c-3.6-1.4-6.9-3.2-10.6-4.4
					c-0.5-0.2-1.1-0.4-1.6-0.6c-0.4-0.2-0.8-0.4-0.6-0.9c0.2-0.5,0.6-0.5,1-0.4c2.5,0.7,5.1,0.8,7.6,1.7c1.1,0.4,2.3,0.6,3.4,0.7
					c0.6,0.1,1.3,0,1.5-0.7c0.2-0.7-0.2-1.2-0.7-1.5c-0.7-0.4-1.5-0.9-2.3-1.2c-2.9-0.9-5.6-2.1-8.6-2.7c-3.2-0.6-6.2-1.8-8.9-3.7
					c-0.5-0.4-1.1-0.7-0.9-1.4c0.1-0.8,0.6-1.4,1.4-1.7c1.8-0.6,3.6-1.1,5.1-2.3c0.9-0.8,1.6-1.6,1.6-2.9c0-1.2-0.6-1.5-1.7-1.1
					c-3.2,1.2-6.1,3.1-9.7,3.5c-1.8,0.2-3.2,1.8-4.9,2.7c-0.6,0.3-1.2,0.7-1.7,1.1c-1.6,1.3-3.4,1.6-5.4,1.3c-4-0.6-8.2-1-12.1-2
					c-4.8-1.2-9.6-2.5-14.3-4c-5.3-1.7-10.5-3.4-16.1-3.4c-1.9,0-3.9,0.2-5.8,0.3c-3.2,0.2-6.3-0.4-9.4-0.8
					c-4.1-0.6-8.1-0.9-12.2-1.6c-2.1-0.4-4-1.1-5.8-2.1c-4.6-2.5-9.5-4.4-14.7-5.1c-2.8-0.4-5.6-0.7-8.4-0.5"/>
			</g>
			<path class="st2" d="M5.9,118.8c0,0-2.8,16.4-1.5,24"/>
		</g>
	</g>
	<g>
		<g>
			<text transform="matrix(1 0 0 1 228.0654 240.0068)" class="st3 st4 st5">Ala Grulla 1.40 m.</text>
		</g>
		<g>
			<text transform="matrix(1 0 0 1 228.5703 258.6592)" class="st3 st4 st5">Ala Condor 1.40 m.</text>
		</g>
		<g>
			<text transform="matrix(1 0 0 1 228.5762 277.3359)" class="st3 st4 st5">Medida aprox. hombre </text>
			<text transform="matrix(1 0 0 1 228.5762 291.9229)" class="st3 st4 st5">promedio 74 cm.</text>
		</g>
		<path class="st6" d="M210,240.7h-14.7c-2.3,0-4.1-1.9-4.1-4.1l0,0c0-2.3,1.9-4.1,4.1-4.1H210c2.3,0,4.1,1.9,4.1,4.1l0,0
			C214.2,238.8,212.3,240.7,210,240.7z"/>
		<path class="st7" d="M210,259h-14.7c-2.3,0-4.1-1.9-4.1-4.1l0,0c0-2.3,1.9-4.1,4.1-4.1H210c2.3,0,4.1,1.9,4.1,4.1l0,0
			C214.2,257.2,212.3,259,210,259z"/>
		<path class="st8" d="M210,277.3h-14.7c-2.3,0-4.1-1.9-4.1-4.1l0,0c0-2.3,1.9-4.1,4.1-4.1H210c2.3,0,4.1,1.9,4.1,4.1l0,0
			C214.2,275.5,212.3,277.3,210,277.3z"/>
		<polyline class="st9" points="202.7,236.6 224.7,236.6 224.7,187 		"/>
		<polyline class="st10" points="191.2,254.9 164.8,254.9 164.8,196.7 		"/>
		<polyline class="st11" points="191.2,273.2 100.4,273.2 100.4,149.2 		"/>
	</g>
</g>
</svg>
